<svg width="100%" height="100%" viewBox="0 0 200 80" xmlns="http://www.w3.org/2000/svg" version="1.0">
    <defs>
        <linearGradient id="fc97bc9f-68b7-424f-b18a-c011f94c4248" y2="0" x2="0" y1="1" x1="0">
            <stop stop-color="#091f3f" offset="0%"/>
            <stop stop-color="#527895" offset="100%"/>
        </linearGradient>
    </defs>
    <g>
        <rect fill="none" id="canvas_background" height="80" width="200" y="0" x="0"/>
    </g>
    <g>
        <g id="svg_3" fill="#913234">
            <g id="svg_4">
                <g id="svg_5">
                    <rect id="svg_6" height="61.760165" width="60" y="5.961168" x="0" stroke-width="2" fill-opacity="0"
                          fill="#913234"/>
                    <svg id="svg_7" height="61.760165" width="60" y="5.961168" x="0">
                        <svg id="svg_8" viewBox="0 0 151.6999969482422 156.14999389648438"
                             xmlns="http://www.w3.org/2000/svg">
                            <g id="svg_9">
                                <g id="svg_10">
                                    <path id="svg_11"
                                          d="m123.1,147.9l0,-66.07l28.6,-16.51l0,-16.52l-71.51,41.29l0,16.52l28.61,-16.52l0,66.06l14.3,-8.25z"
                                          fill="#913234"/>
                                    <path id="svg_12"
                                          d="m118.76,57.8l-57.21,-33.03l28.6,-16.51l-14.3,-8.26l-71.52,41.29l14.31,8.26l28.6,-16.52l57.21,33.03l14.31,-8.26z"
                                          fill="#e08497"/>
                                    <path id="svg_13"
                                          d="m42.91,156.15l0,-66.06l28.6,16.52l0,-16.52l-71.51,-41.29l0,16.52l28.61,16.51l0,66.07l14.3,8.25z"
                                          fill="#323d39"/>
                                </g>
                            </g>
                        </svg>
                    </svg>
                    <!---->
                </g>
            </g>
            <g id="svg_14">
                <g id="svg_15" fill="url(#fc97bc9f-68b7-424f-b18a-c011f94c4248)">
                    <g id="svg_16" transform="translate(71.40499877929688,88.15875244140625) scale(1) ">
                        <g id="svg_17">
                            <path id="svg_18"
                                  d="m-4.404999,-73.938751l0,5.2l5.2,0l0,18.09q0,3.75 2.67,6.41l0,0q2.6,2.61 6.35,2.61l0,0l7.8,0l0,-5.14l-5.2,0q-1.59,0 -2.73,-1.15l0,0q-1.14,-1.14 -1.14,-2.73l0,0l0,-18.09l9.07,0l0,-5.2l-9.07,0l0,-14.22l-7.75,0l0,14.22l-5.2,0zm38.72,0l10.35,0q3.74,0 6.34,2.66l0,0q2.67,2.67 2.67,6.42l0,0l0,14.21q0,3.75 -2.67,6.41l0,0q-2.6,2.61 -6.34,2.61l0,0l-10.35,0q-3.75,0 -6.41,-2.61l0,0q-2.67,-2.66 -2.67,-6.41l0,0l0,-14.21q0,-3.75 2.67,-6.42l0,0q2.66,-2.66 6.41,-2.66l0,0zm7.74,5.2l-5.14,0q-1.65,0 -2.79,1.15l0,0q-1.14,1.14 -1.14,2.73l0,0l0,14.21q0,1.59 1.14,2.73l0,0q1.14,1.15 2.79,1.15l0,0l5.14,0q1.59,0 2.73,-1.15l0,0q1.15,-1.14 1.15,-2.73l0,0l0,-14.21q0,-1.59 -1.15,-2.73l0,0q-1.14,-1.15 -2.73,-1.15l0,0zm26.98,41.33l-7.74,0l0,-43.36q0,-1.33 0.95,-2.28l0,0q0.95,-0.89 2.28,-0.89l0,0l16.13,0q3.74,0 6.41,2.6l0,0q2.66,2.67 2.66,6.41l0,0l0,14.22q0,3.75 -2.66,6.41l0,0q-2.67,2.67 -6.41,2.67l0,0l-11.62,0l0,14.22zm9.08,-41.39l-7.75,0q-1.33,0 -1.33,1.27l0,0l0,20.69l9.08,0q1.59,0 2.73,-1.14l0,0q1.14,-1.14 1.14,-2.73l0,0l0,-14.22q0,-1.59 -1.14,-2.73l0,0q-1.14,-1.14 -2.73,-1.14l0,0zm47.67,0.06l0,-5.2l-25.2,0q-1.33,0 -2.29,0.95l0,0q-0.95,0.95 -0.95,2.29l0,0l0,7.49q0,2.92 2.67,4.12l0,0l16.88,7.68q1.14,0.51 1.14,1.78l0,0l0,1.59q0,1.27 -1.26,1.27l0,0l-19.43,0l0,5.14l25.2,0q1.33,0 2.29,-0.95l0,0q0.95,-0.89 0.95,-2.29l0,0l0,-7.43q0,-2.92 -2.6,-4.12l0,0l-16.95,-7.75q-1.14,-0.5 -1.14,-1.71l0,0l0,-1.59q0,-1.27 1.33,-1.27l0,0l19.36,0z"/>
                        </g>
                    </g>
                </g>
                <g id="svg_19" fill="#45818E">
                    <rect id="svg_20" width="47.390001" y="69.715" height="1" x="72"/>
                    <rect id="svg_21" x="144.800001" width="47.390001" y="69.715" height="1"/>
                    <g id="svg_22">
                        <g id="svg_23" transform="translate(71.40499877929688,88.15875244140625) scale(1) ">
                            <path id="svg_24"
                                  d="m52.020626,-21.366252l0,0l1.4,0q1.03,4.88 1.08,5.11l0,0l0,0q1.08,-4.87 1.17,-5.11l0,0l1.36,0q0.19,1.27 0.99,6.89l0,0l-1.08,0l-0.66,-4.87l-0.05,0l-1.03,4.87l-1.36,0q-0.04,0 -0.09,-0.42l0,0q-0.05,-0.18 -0.75,-3.47l0,0q-0.19,-1.07 -0.23,-1.17l0,0l0,0l-0.66,5.06l-1.13,0q0.75,-5.01 0.94,-6.23l0,0q0,0 0.1,-0.66zm8.95,-0.04l0,0l0.89,0q0.05,0 0.19,0.04l0,0l2.06,5.68l0.47,1.21l-1.17,0l-0.71,-1.87l-2.53,0q0,0.09 -0.65,1.87l0,0l-1.18,0q0.05,-0.09 2.07,-5.81l0,0q0.37,-1.03 0.37,-1.08l0,0q0.14,-0.04 0.19,-0.04zm0.47,1.59l0,0l-0.89,2.49l1.78,0q0,0 -0.89,-2.49l0,0zm4.26,-1.55l2.63,0q0.84,0 1.5,0.71l0,0q0.28,0.37 0.33,0.56l0,0q0.23,0.52 0.23,0.98l0,0l0,0.14q0,0.71 -0.42,1.36l0,0q-0.66,0.8 -1.59,0.8l0,0l-1.88,0q0,0 -0.05,-0.28l0,0q-0.04,-0.09 -0.28,-1.13l0,0q0.28,0.15 0.75,0.29l0,0q0.52,0.14 0.85,0.14l0,0l0.61,0q0.6,0 0.89,-0.8l0,0q0.04,-0.23 0.04,-0.38l0,0l0,-0.04q0,-0.56 -0.42,-0.99l0,0q0,0 -0.14,-0.09l0,0q-0.23,-0.14 -0.42,-0.14l0,0l-2.16,0l0,5.76l-1.22,0l0,-6.23q0,-0.05 0.43,-0.37l0,0q0.32,-0.29 0.32,-0.29l0,0z"/>
                        </g>
                    </g>
                </g>
            </g>
        </g>
    </g>
</svg>
